# xmcd
# Copyright (C) 1995-1998 Ti Kan
#
# Track frame offsets:
#       150
#       16399
#       32158
#       47711
#       63138
#
# Disc length: 1118 seconds
#
# Revision: 0
# Processed by: cddbd v1.4b42PL1 Copyright (c) Steve Scherf et al.
# Submitted via: CD-Transfer v1.0
#
DISCID=37045c05
DTITLE=Louis Schornoz - Drei
DYEAR=2000
DGENRE=
TTITLE0=Le Flic
TTITLE1=That Ol' Man
TTITLE2=My Lover
TTITLE3=Reproduce-It (Reproduziere Dini Lüüt)
TTITLE4=Fleisch Und Blut
EXTD=
EXTT0=
EXTT1=
EXTT2=
EXTT3=
EXTT4=
PLAYORDER=
